<svg width="32" height="32" viewBox="0 0 32 32" fill="none" xmlns="http://www.w3.org/2000/svg">
<path fill-rule="evenodd" clip-rule="evenodd" d="M15.4422 25.6461C16.4592 22.8969 19.4333 21.4132 22.2341 22.2591C22.7469 22.4 23.2794 22.1121 23.4432 21.6057C23.5256 21.3616 23.4938 21.0934 23.3575 20.875C21.4057 17.1725 16.8297 15.7575 13.1362 17.7141C9.44268 19.6707 8.03113 24.2578 9.98294 27.9603C11.3996 30.6475 14.281 32.2276 17.3031 31.9731C15.3719 30.4971 14.6198 27.9362 15.4422 25.6461Z" fill="#097FD5"/>
<path fill-rule="evenodd" clip-rule="evenodd" d="M27.1308 15.8464C24.7339 9.80222 17.9026 6.84932 11.873 9.25205C5.84353 11.6548 2.89866 18.5028 5.29555 24.547C6.52272 27.6426 9.00022 30.0719 12.1149 31.2342L11.5232 30.813C7.984 28.0165 7.36656 22.8775 10.1425 19.3194C10.6356 18.7048 11.2127 18.1632 11.8576 17.7119C13.2503 16.7216 14.9105 16.1791 16.6171 16.1559C17.117 16.1593 17.6161 16.2058 18.1092 16.2935C18.7173 16.4112 19.3124 16.5892 19.8844 16.8264C21.2754 16.4026 22.7495 16.3347 24.1722 16.6287C24.7073 16.7516 25.2296 16.9236 25.733 17.1445C26.2544 17.3672 26.8572 17.1299 27.0879 16.6115C27.2294 16.3803 27.2457 16.0923 27.1308 15.8464Z" fill="#1794EF"/>
<mask id="mask0_5493_12865" style="mask-type:luminance" maskUnits="userSpaceOnUse" x="0" y="0" width="32" height="31">
<path fill-rule="evenodd" clip-rule="evenodd" d="M0 0H31.1351V30.6753H0V0Z" fill="white"/>
</mask>
<g mask="url(#mask0_5493_12865)">
<path fill-rule="evenodd" clip-rule="evenodd" d="M31.076 10.9035C28.2709 2.53223 19.228 -1.97492 10.877 0.836138C2.52608 3.64806 -1.97012 12.7122 0.834106 21.0844C2.27653 25.3895 5.47695 28.8763 9.63698 30.6755C9.32826 30.4778 9.01954 30.2543 8.70996 30.0222C3.3116 25.8838 2.28081 18.1418 6.40912 12.7294C6.40997 12.7286 6.41083 12.7268 6.41255 12.726C7.08488 11.8294 7.87898 11.0307 8.77084 10.3533C10.931 8.69077 13.5766 7.78556 16.3002 7.77439C17.1655 7.76837 18.0291 7.86379 18.8729 8.05807C20.8925 8.48188 22.7723 9.41374 24.3356 10.766L24.5071 10.9035C25.2738 10.9052 26.0396 10.9921 26.7882 11.1614C27.7573 11.3634 28.6946 11.6953 29.5753 12.15C30.1061 12.4234 30.7579 12.2205 31.0417 11.6944C31.1532 11.4442 31.1652 11.1614 31.076 10.9035Z" fill="#45AAF4"/>
</g>
</svg>
